<svg width="54" height="40" viewBox="0 0 54 40" fill="none" xmlns="http://www.w3.org/2000/svg">
<path d="M16.2454 39.7975C7.28682 39.7975 0 32.7281 0 24.0382C0 15.3484 7.28789 8.27902 16.2454 8.27902H16.2494C17.7583 5.75079 19.8985 3.6583 22.4599 2.20688C25.0214 0.755464 27.9162 -0.00502763 30.8602 2.50135e-05C39.0069 2.50135e-05 46.0679 5.8888 47.5894 13.8178C51.4897 16.4746 53.797 20.8138 53.797 25.5714C53.797 33.4159 47.4159 39.7975 39.5723 39.7975C39.5723 39.7975 28.7054 40.894 28.8911 29.3866H27.2451C27.2451 29.3866 28.4034 39.9113 16.4569 39.8257L16.2454 39.7975Z" fill="#F3F2F2"/>
<path d="M31.1061 27.1202C30.8331 27.6001 30.2094 28.5274 30.1786 28.5585C30.1041 28.633 30.0156 28.6921 29.9182 28.7323C29.8208 28.7726 29.7164 28.7931 29.6111 28.7929L26.5312 28.7954C26.4028 28.7943 26.2763 28.7628 26.1624 28.7034C26.0484 28.644 25.9502 28.5584 25.8757 28.4537C25.5923 28.0503 25.3114 27.6001 25.0362 27.1213C24.1284 27.3532 21.4819 27.5901 21.4819 27.5901C21.4819 27.5901 21.7489 23.5566 23.0786 22.0528C22.7755 20.5791 22.7025 19.0588 23.007 17.6152C23.586 14.881 25.4656 12.8254 27.5053 10.7845C27.6558 10.6341 27.8599 10.5497 28.0726 10.5497C28.2853 10.5497 28.4894 10.6341 28.6399 10.7845C30.5973 12.7417 32.5585 14.885 33.1343 17.6198C33.4409 19.0603 33.369 20.5805 33.0652 22.0574C34.3956 23.5605 34.6629 27.5933 34.6629 27.5933C34.6629 27.5933 32.0139 27.3532 31.1061 27.1202Z" fill="#353431"/>
<path d="M29.5001 18.5671C29.5001 18.2911 29.4182 18.0212 29.2649 17.7917C29.1115 17.5622 28.8936 17.3833 28.6386 17.2777C28.3836 17.172 28.103 17.1444 27.8323 17.1982C27.5616 17.2521 27.3129 17.385 27.1177 17.5802C26.9226 17.7754 26.7896 18.0241 26.7358 18.2948C26.682 18.5656 26.7096 18.8462 26.8152 19.1012C26.9208 19.3563 27.0997 19.5742 27.3292 19.7276C27.5587 19.881 27.8285 19.9628 28.1045 19.9628C28.4746 19.9628 28.8296 19.8158 29.0913 19.554C29.353 19.2923 29.5001 18.9373 29.5001 18.5671V18.5671Z" fill="#F3F2F2"/>
</svg>
